<svg width="1147" height="702" viewBox="0 0 1147 702" fill="none" xmlns="http://www.w3.org/2000/svg">
<g clip-path="url(#clip0)">
<path d="M1286.01 401.624C1243.28 505.661 1184.51 591.708 1118.67 647.434C1077.62 681.836 1031.44 701.32 993.681 701.676C983.384 701.773 973.607 700.505 964.962 697.638C921.527 682.854 892.1 641.406 862.506 594.29C795.546 488.793 720.734 377.474 626.308 297.18C542.334 225.859 457.288 179.039 444.234 120.428C442.455 112.508 442.391 104.572 443.798 96.395C451.726 50.2859 506.525 3.96174 562.443 -45.5478C603.186 -81.5349 635.805 -131.732 645.061 -185.564C650.568 -217.59 647.728 -250.899 633.616 -283.421C580.376 -405.601 429.462 -502.823 274.445 -566.218C200.278 -596.586 129.425 -621.317 78.4376 -645.327C27.7757 -669.568 -4.16394 -693.077 0.796189 -721.924C1.06958 -723.514 1.38203 -725.331 1.94145 -726.924C26.909 -804.034 126.865 -860.535 209.385 -910.296C291.904 -960.056 383.47 -997.656 478.128 -1021.68C554.555 -1040.99 632.854 -1051.26 710.369 -1051.99C825.07 -1053.07 937.854 -1033.04 1039.18 -989.551C1209.11 -916.546 1314.68 -791.457 1347.98 -647.999C1361.44 -590.073 1363.23 -529.088 1352.65 -467.534C1350.11 -452.77 1347.04 -438.228 1343.07 -423.45C1341.21 -415.949 1339.27 -407.994 1337.82 -399.59C1331.57 -363.248 1330.59 -317.657 1336.96 -261.705C1346.71 -177.212 1361.4 -76.6644 1358.66 40.6017C1357.41 94.358 1352.44 148.149 1343.27 201.527C1330.94 269.901 1312.19 337.428 1286.01 401.624ZM446.619 96.5952C445.291 104.318 445.354 112.254 446.887 119.95C459.316 177.206 544.037 224.255 628.258 295.801C723.217 376.316 797.99 487.863 864.951 593.36C894.623 640.022 924.088 681.243 966.496 695.356C974.895 697.998 984.061 699.499 994.072 699.405C1030.4 699.062 1076.22 680.035 1116.65 645.865C1182.13 590.596 1240.57 504.78 1283.27 400.97C1309.69 336.998 1328.4 269.698 1340.2 201.102C1349.34 147.952 1354.3 94.1604 1355.51 40.6313C1358.21 -76.4076 1343.23 -176.952 1333.77 -261.449C1327.44 -317.628 1328.43 -363.218 1334.72 -399.787C1336.16 -408.191 1337.85 -416.371 1340 -423.875C1343.93 -438.425 1347.04 -453.194 1349.54 -467.731C1360.09 -529.059 1358.54 -589.818 1345.04 -647.518C1311.91 -790.297 1206.55 -914.935 1037.44 -987.721C936.359 -1030.99 824.146 -1051.02 710.018 -1049.94C632.788 -1049.22 554.776 -1038.96 478.634 -1019.64C384.302 -995.85 293.347 -958.482 211.114 -908.725C128.594 -858.964 29.535 -802.698 5.08785 -726.953C4.20331 -725.131 3.92994 -723.541 3.65655 -721.951C-0.991137 -694.921 29.5184 -671.398 80.5053 -647.388C131.206 -623.375 202.059 -598.644 276.513 -568.279C431.816 -504.887 583.263 -407.443 636.919 -284.359C651.239 -251.385 654.04 -217.85 648.455 -185.369C639.081 -130.856 606.137 -80.4289 565.03 -43.9849C508.254 5.53284 454.352 51.6218 446.619 96.5952Z" fill="#1463FF"/>
<path d="M1283.92 390.532C1243.57 490.692 1188.41 573.983 1125.87 628.77C1084.88 664.533 1038.54 684.926 1001.07 685.279C992.775 685.357 984.922 684.524 977.837 682.55C934.999 670.935 905.273 632.891 876.198 589.399C810.393 490.467 741.899 382.263 654.781 300.994C576.514 228.031 497.983 178.202 486.125 120.941C484.346 113.02 484.569 105.081 485.936 97.1316C493.513 53.0667 543.474 9.96293 594.061 -36.7751C632.112 -72.0564 662.742 -120.647 671.803 -173.343C677.115 -204.234 674.977 -236.642 662.788 -268.729C616.309 -388.705 477.786 -489.9 329.557 -557.894C255.157 -591.888 182.496 -617.735 128.766 -642.4C75.0751 -667.292 40.0281 -690.999 41.5822 -721.628C41.7648 -724.351 41.9475 -727.074 42.3771 -729.572C54.1847 -796.581 155.753 -850.83 232.538 -897.134C312.743 -945.059 401.214 -981.269 492.815 -1004.13C565.941 -1022.51 641.014 -1032.29 715.384 -1032.99C827.224 -1034.04 936.94 -1014.44 1035.52 -971.602C1199.51 -900.582 1301.13 -779.084 1332.92 -640.147C1345.63 -584.481 1347.03 -526.214 1336.88 -467.158C1334.34 -452.394 1330.94 -437.622 1326.97 -422.845C1325.58 -418.069 1324.72 -413.072 1323.82 -407.848C1317.1 -368.78 1321.27 -318.25 1329.73 -256.195C1340.94 -171.942 1355.83 -72.53 1353.27 42.0131C1352.14 95.088 1347.01 148.201 1338.03 200.442C1326.24 265.636 1308.65 329.752 1283.92 390.532ZM488.224 97.11C486.896 104.833 486.998 112.542 488.531 120.238C500.051 176.141 578.543 226.198 656.77 299.387C744.136 380.881 812.877 489.31 878.682 588.241C907.47 631.737 937.275 669.326 979.046 680.498C985.846 682.475 993.412 683.31 1001.42 683.235C1037.75 682.892 1083.44 662.959 1123.82 627.429C1185.99 573.099 1240.83 490.037 1281.43 390.102C1305.83 329.551 1323.42 265.436 1334.63 200.248C1343.62 148.006 1348.42 95.123 1349.84 42.0454C1352.36 -72.2705 1337.76 -171.685 1326.26 -255.935C1317.8 -317.99 1313.67 -368.748 1320.43 -408.043C1321.33 -413.267 1322.51 -418.494 1323.9 -423.269C1327.87 -438.047 1331.27 -452.819 1333.77 -467.356C1343.88 -526.184 1342.44 -584.224 1329.7 -639.663C1298.07 -777.921 1196.95 -898.97 1033.49 -969.769C935.445 -1012.38 825.975 -1031.76 714.707 -1030.71C640.91 -1030.02 566.122 -1020.24 493.322 -1002.09C402.006 -979.236 313.86 -943.255 233.941 -895.334C156.909 -849.253 56.1605 -794.785 44.9514 -729.597C44.5218 -727.098 44.3392 -724.375 44.1956 -721.879C42.3037 -692.608 76.5317 -669.12 130.262 -644.455C183.992 -619.79 256.652 -593.943 331.053 -559.949C479.529 -491.73 618.337 -390.539 665.233 -269.659C677.668 -237.348 679.728 -204.486 674.377 -173.368C665.199 -119.99 634.205 -70.9424 595.829 -35.4312C544.956 11.3096 495.567 54.408 488.224 97.11Z" fill="#1463FF"/>
<path d="M1135.43 603.055C1094.7 640.63 1048.05 662.839 1010.29 663.195C1004.86 663.247 999.502 662.844 994.223 661.986C952.971 654.438 922.425 621.164 894.571 582.196C830.311 492.547 769.5 389.486 692.146 307.898C621.798 233.727 551.822 180.642 541.16 124.73C539.706 116.58 539.643 108.644 541.049 100.467C548.235 58.6735 591.643 18.8064 634.858 -24.9142C668.748 -59.2492 696.127 -105.542 704.836 -156.194C710.031 -186.403 708.673 -218.365 697.915 -250.465C658.65 -367.562 535.795 -471.851 397.371 -545.381C256.359 -620.473 114.857 -654.515 97.0848 -715.575C95.1101 -722.36 94.8906 -729.387 96.0623 -736.201C105.331 -788.446 194.742 -840.086 262.503 -880.409C339.171 -926.032 424.183 -960.396 511.546 -981.856C580.432 -998.833 651.098 -1007.89 720.891 -1008.55C828.727 -1009.56 934.802 -990.382 1029.61 -948.869C1185.73 -880.269 1282.25 -763.939 1311.91 -630.878C1326.74 -564.347 1317.5 -493.961 1305.81 -422.645C1298.72 -378.132 1308.82 -320.627 1319.94 -249.072C1332.99 -165.517 1347.37 -68.1417 1344.9 42.5454C1343.85 95.1661 1338.87 147.37 1330.24 197.568C1301.49 364.742 1232.91 512.789 1135.43 603.055ZM544.156 100.665C542.828 108.387 542.891 116.324 544.385 124.247C554.709 178.801 624.359 232.115 694.954 306.511C772.556 388.324 833.367 491.384 897.627 581.033C925.48 620.002 955.858 652.597 995.719 659.931C1000.71 660.791 1005.78 661.197 1010.93 661.148C1047.26 660.806 1093.22 639.283 1133.63 601.938C1230.42 512.359 1298.96 364.539 1327.59 198.046C1336.22 147.849 1341.16 95.8717 1342.21 43.2512C1344.6 -66.9817 1330.22 -164.357 1317.17 -247.912C1306.06 -319.467 1295.67 -376.969 1303.11 -421.94C1314.81 -493.256 1324.01 -563.414 1309.39 -629.493C1279.89 -761.876 1183.91 -877.984 1028.29 -946.136C933.762 -987.651 828.219 -1006.61 720.955 -1005.6C651.448 -1004.94 581.068 -995.891 512.468 -978.916C425.105 -957.457 340.704 -923.326 264.361 -877.932C196.64 -837.836 107.723 -785.747 99.3776 -735.552C98.2449 -728.965 98.5034 -722.165 100.231 -715.605C116.886 -656.348 257.946 -621.395 399.568 -546.535C538.279 -473.009 661.667 -368.497 701.1 -250.722C711.819 -218.395 713.138 -186.206 707.905 -155.769C699.078 -104.436 671.335 -57.6863 637.12 -23.1215C593.944 20.3719 551.147 60.0067 544.156 100.665Z" fill="#1463FF"/>
<path d="M1145.11 576.659C1108.74 612.151 1067.47 627.96 1028.28 628.33C983.089 628.756 941.202 608.288 913.997 573.849C851.451 494.162 797.309 397.161 729.731 316.841C667.106 242.597 606.141 186.933 596.103 132.376C594.727 123.772 594.742 115.381 596.187 106.977C603.061 67.0007 640.358 29.4588 676.564 -11.7012C705.968 -44.8601 729.446 -88.3946 737.726 -136.548C742.959 -166.984 741.966 -199.403 732.469 -232.195C698.911 -345.944 590.06 -451.954 461.53 -529.885C328.854 -610.271 192.671 -648.672 156.93 -708.202C151.874 -716.999 150.29 -726.055 151.891 -735.367C159.715 -779.208 232.522 -827.289 292.923 -863.008C366.339 -906.333 447.282 -938.617 531.017 -958.909C595.665 -974.485 661.637 -982.817 727.139 -983.435C830.97 -984.414 933.12 -965.648 1024.41 -925.236C1172.99 -859.286 1264.03 -747.667 1291.6 -620.708C1305.22 -557.114 1288.97 -489.157 1287.52 -419.298C1286.47 -371.666 1298.95 -313.051 1311.67 -240.831C1326.05 -158.422 1339.72 -63.5342 1337.75 42.6128C1336.78 94.7791 1331.71 145.85 1323.19 195.366C1296.28 351.865 1233.71 489.877 1145.11 576.659ZM599.294 107.175C597.888 115.352 597.913 123.515 599.328 131.892C608.989 185.319 669.629 241.213 732.54 315.454C800.364 395.998 854.507 492.999 916.806 572.462C943.517 606.452 984.623 626.474 1028.96 626.056C1067 625.697 1107.34 610.35 1143.06 575.317C1231.26 489.22 1293.75 351.662 1320.58 195.618C1329.05 146.329 1333.88 95.0333 1335.1 43.0914C1337.03 -62.8286 1323.36 -157.716 1308.98 -240.125C1296.51 -312.12 1283.78 -370.961 1284.87 -418.819C1286.4 -489.132 1302.61 -556.863 1288.87 -619.775C1261.5 -746.282 1170.92 -857.226 1022.87 -922.954C932.157 -963.371 830.54 -981.915 726.995 -980.939C661.779 -980.324 596.093 -971.994 531.731 -956.421C448.608 -936.362 367.951 -904.08 294.573 -860.982C234.212 -825.491 161.938 -777.188 154.998 -735.17C153.475 -726.311 154.812 -717.48 159.66 -709.135C194.491 -650.957 330.597 -612.102 463.806 -531.494C592.296 -453.335 701.681 -347.104 735.407 -232.677C745.151 -199.66 746.106 -167.014 740.794 -136.123C732.436 -87.5156 708.594 -43.5242 678.865 -10.1354C642.659 31.0245 606.012 68.1067 599.294 107.175Z" fill="#1463FF"/>
<path d="M1149.71 563.236C1112.77 600.321 1070.2 617.05 1030.16 617.427C988.11 617.824 949.473 600.046 923.893 569.447C862.204 494.741 811.194 401.112 747.998 321.885C689.013 248.06 632.456 191.674 623.198 137.563C621.614 128.507 621.667 119.89 623.152 111.258C629.869 72.1906 663.864 35.5867 697.053 -4.6377C723.805 -37.3181 745.618 -79.4761 753.624 -126.04C758.936 -156.93 758.307 -189.806 748.927 -223.28C717.67 -335.463 615.151 -441.759 492.082 -521.555C364.087 -604.254 230.7 -645.629 187.898 -703.959C180.711 -713.642 178.789 -724.055 180.625 -734.731C187.694 -775.843 251.373 -820.664 308.236 -854.082C379.989 -896.03 459.098 -927.617 540.674 -946.981C603.203 -961.857 667.133 -969.943 730.348 -970.539C832.462 -971.502 932.688 -953.171 1021.77 -913.193C1166.25 -848.338 1254.9 -739.417 1281.26 -615.395C1294.26 -553.156 1276.81 -486.548 1279.33 -416.5C1280.95 -367.759 1294.46 -308.473 1307.49 -236.483C1322.28 -154.758 1335.61 -61.2278 1333.74 42.6506C1332.85 94.3626 1328.07 145.431 1319.63 194.493C1293.7 345.313 1234.03 478.082 1149.71 563.236ZM626.298 111.229C624.853 119.633 624.799 128.251 626.136 137.082C635.264 190.287 691.782 246.9 750.806 320.498C814.288 399.722 864.973 493.581 926.415 568.062C951.462 598.44 989.644 615.542 1030.55 615.156C1069.45 614.789 1111.08 598.523 1147.65 561.895C1231.28 477.428 1291.16 345.11 1317.06 194.517C1325.45 145.682 1330.24 94.6141 1331.42 42.8994C1333.25 -60.7518 1319.92 -154.282 1305.09 -235.78C1292.05 -307.77 1278.54 -367.056 1276.68 -416.021C1274.24 -486.524 1291.69 -553.132 1278.86 -614.692C1252.66 -738.035 1164.55 -846.734 1020.56 -911.14C931.725 -950.895 831.786 -969.228 730.243 -968.271C667.315 -967.677 603.67 -959.594 541.428 -944.72C460.138 -925.359 381.354 -894.002 309.887 -852.056C253.063 -818.865 190.203 -773.826 183.732 -734.534C181.974 -724.312 183.974 -714.353 190.668 -705.119C232.481 -647.687 366.077 -605.86 494.358 -523.164C617.673 -443.143 720.726 -336.626 752.151 -223.764C761.492 -190.063 762.083 -156.96 756.732 -125.842C748.647 -78.8244 726.795 -36.4391 699.679 -3.30176C666.568 36.4684 632.899 72.8423 626.298 111.229C626.337 111.002 626.337 111.002 626.298 111.229Z" fill="#1463FF"/>
<path d="M1159.05 535.482C1120.92 576.207 1075.46 594.777 1033.98 595.168C998.516 595.502 966.21 582.427 944.281 558.823C884.228 494.533 839.119 408.105 784.491 332.199C732.878 260.346 684.525 202.748 675.968 149.538C674.541 139.574 674.751 130.047 676.391 120.507C682.874 82.8025 711.239 47.3856 737.823 9.0376C759.764 -22.2368 777.273 -60.9528 784.654 -103.882C790.239 -136.363 789.922 -171.056 780.933 -206.801C753.42 -315.844 662.589 -422.024 549.39 -504.408C430.886 -590.824 303.949 -638.156 250.369 -695.25C237.345 -709.187 233.019 -723.887 235.596 -738.878C242.041 -776.356 290.935 -814.914 354.339 -848.167C417.742 -881.419 495.329 -909.136 559.899 -924.258C618.227 -937.961 677.464 -945.323 736.388 -945.878C834.498 -946.803 930.797 -928.889 1016.35 -890.011C1153.3 -827.806 1236.47 -723.596 1260.74 -605.678C1272.86 -546.605 1255.52 -482.265 1264.51 -410.01C1278.25 -300.61 1329.25 -152.103 1326.26 41.3606C1325.44 92.6183 1320.77 143.005 1312.45 191.386C1288.64 331.528 1234.7 454.265 1159.05 535.482ZM678.907 149.057C687.047 201.364 735.4 258.961 786.974 331.042C841.564 407.175 886.959 493.6 946.518 557.441C968.239 580.594 999.765 593.223 1034.38 592.896C1074.71 592.516 1119.23 574.408 1156.71 534.143C1231.95 453.611 1285.86 331.1 1309.88 191.41C1318.16 143.257 1322.79 93.0969 1323.6 41.839C1326.52 -151.17 1275.48 -299.45 1261.82 -409.305C1252.9 -482.014 1269.92 -546.123 1258.01 -604.745C1233.95 -722.211 1150.94 -825.743 1014.82 -887.729C929.509 -926.382 833.782 -944.302 735.958 -943.38C677.321 -942.827 618.084 -935.465 560.366 -921.995C496.083 -906.876 418.496 -879.159 355.704 -846.139C292.625 -813.116 244.628 -774.792 238.418 -738.677C235.918 -724.141 240.075 -710.12 252.853 -696.408C305.692 -639.986 432.876 -592.43 551.626 -505.789C665.073 -423.181 756.112 -316.55 783.833 -207.055C792.783 -171.083 793.347 -136.165 787.723 -103.457C780.302 -60.3011 762.468 -21.3552 740.449 10.3734C713.579 48.7241 685.539 83.9112 679.173 120.935C677.611 130.02 677.44 139.32 678.907 149.057Z" fill="#1463FF"/>
<path d="M1167.97 506.825C1128.89 551.413 1080.76 572.276 1038.42 572.676C1009.82 572.945 983.675 563.894 964.944 546.609C907.099 492.73 866.629 414.195 819.515 342.754C774.22 274.016 733.629 216.118 726.347 163.803C724.828 152.706 725.311 141.589 727.147 130.914C733.396 94.5716 756.456 60.112 777.371 23.178C794.136 -6.2334 808.121 -41.061 814.683 -79.2203C820.697 -114.2 820.641 -152.07 811.379 -191.214C786.427 -296.88 705.984 -402.023 602.536 -486.314C493.576 -575.087 373.948 -628.384 313.633 -684.508L314.933 -685.428L313.672 -684.735C297.449 -700.003 291.966 -716.279 294.817 -732.86C306.937 -801.685 461.036 -874.117 579.695 -901.541C633.498 -913.841 688.614 -920.483 742.961 -920.995C837.353 -921.885 929.725 -904.388 1011.47 -866.608C1140.55 -806.823 1218.62 -707.78 1240.76 -595.738C1251.67 -539.602 1237.69 -478.242 1252.48 -401.506C1273.79 -291.27 1321.5 -145.226 1319.21 39.1594C1318.47 89.9628 1313.92 139.668 1305.72 187.367C1283.5 316.609 1235.2 429.769 1167.97 506.825ZM729.324 163.095C736.437 214.731 776.742 272.631 822.037 341.369C869.113 413.038 909.296 491.575 966.933 545.003C985.171 561.839 1010.5 570.671 1038.53 570.407C1079.72 570.019 1126.88 549.845 1165.59 505.713C1232.45 429.115 1280.68 316.409 1302.78 187.849C1310.94 140.377 1315.45 90.8983 1316.19 40.0947C1318.44 -144.064 1270.7 -289.88 1249.43 -400.344C1234.71 -477.534 1248.4 -538.891 1237.7 -594.575C1215.77 -706.166 1138.2 -804.76 1009.61 -864.096C928.152 -901.879 836.026 -919.152 742.206 -918.267C688.145 -917.758 633.316 -911.118 579.512 -898.818C461.504 -871.854 308.185 -798.976 297.028 -732.427C294.294 -716.527 299.569 -700.703 315.297 -685.885C375.365 -629.985 494.994 -576.688 604.201 -487.69C707.895 -403.175 788.586 -297.807 813.707 -191.462C822.929 -152.091 822.946 -113.994 816.893 -78.7877C810.292 -40.4013 796.269 -5.34646 779.464 24.2921C758.263 61.2287 735.528 95.4586 729.357 131.347C728.211 141.335 727.766 152.224 729.324 163.095Z" fill="#1463FF"/>
<path d="M1174.34 484.768C1134.71 532.537 1084.83 555.23 1041.92 555.635C1018.18 555.859 996.472 549.26 980.47 536.032C858.264 436.271 775.804 283.072 762.397 175.029C760.827 162.571 761.506 150.319 763.576 138.281C769.669 102.847 788.893 69.1039 806.18 33.338C819.409 6.22759 830.233 -25.1687 836.092 -59.2394C842.575 -96.9445 842.74 -137.765 832.96 -180.532C781.186 -405.907 492.897 -557.846 360.333 -675.424C340.99 -692.476 334.428 -710.783 337.553 -728.954C349.087 -794.372 483.265 -858.907 593.811 -883.986C644.598 -895.35 696.203 -901.506 747.403 -901.989C838.649 -902.849 928.525 -885.781 1007.53 -848.655C1130.95 -790.859 1205.07 -695.407 1225.41 -587.883C1235.57 -534.008 1226.08 -473.824 1244.57 -393.722C1270.21 -283.753 1315.78 -140.184 1313.8 37.3961C1313.1 87.9725 1308.63 137.224 1300.51 184.469C1279.77 305.079 1235.58 410.944 1174.34 484.768ZM765.661 174.317C778.898 281.682 861.359 434.881 983.071 534.193C998.579 546.973 1019.47 553.352 1042.64 553.134C1084.12 552.743 1133.02 530.738 1172.24 483.654C1233.12 410.287 1277.23 304.876 1297.93 184.493C1306.02 137.475 1310.45 88.4512 1311.15 37.8748C1313.09 -139.478 1267.73 -282.596 1241.84 -392.789C1223.1 -473.116 1232.67 -533.753 1222.72 -587.177C1202.58 -694.25 1128.68 -789.25 1006.03 -846.601C927.276 -883.502 838.258 -900.577 747.299 -899.72C696.384 -899.24 645.065 -893.087 594.564 -881.726C484.669 -857.106 351.557 -792.128 340.985 -728.986C337.978 -711.497 344.371 -693.869 363.18 -677.038C495.211 -559.682 784.034 -407.521 836.223 -181.243C846.004 -138.476 845.76 -97.2014 839.238 -59.2692C833.341 -24.9713 822.23 6.42779 808.962 33.7653C791.389 69.5339 772.451 103.274 766.475 138.027C764.405 150.065 764.052 162.087 765.661 174.317Z" fill="#1463FF"/>
<path d="M1180.53 462.033C1140.68 512.751 1089.31 537.5 1046.69 537.902C1027.52 538.083 1010.36 533.255 996.842 523.859C878.078 440.62 809.385 292.052 797.59 186.262C796.047 171.99 796.713 158.151 799.056 144.522C804.915 110.452 820.55 77.6494 834.495 43.0488C844.356 18.9182 852.397 -7.91642 857.396 -36.9902C864.466 -78.1023 865.087 -123.235 854.371 -170.529C804.898 -389.35 541.481 -548.1 406.837 -665.204C378.278 -690.107 367.363 -716.309 371.425 -739.932C374.979 -760.601 390.195 -779.34 414.849 -793.178C474.898 -826.853 540.822 -851.512 608.499 -866.437C655.983 -876.862 704.363 -882.534 752.131 -882.984C840.517 -883.818 927.286 -866.948 1003.58 -830.704C1121.03 -774.665 1191.23 -683.031 1210.03 -579.801C1219.43 -528.186 1215.55 -467.375 1237.62 -384.812C1266.52 -275.555 1309.77 -135.138 1308.19 35.1814C1307.81 85.5279 1303.38 134.552 1295.37 181.115C1275.79 293.325 1235.75 391.667 1180.53 462.033ZM800.282 185.556C811.83 291.122 880.601 439.235 998.871 522.025C1011.86 531.2 1028.49 535.806 1047.08 535.63C1088.27 535.242 1138.67 511.183 1178.11 461.148C1232.97 391.239 1272.97 293.124 1292.23 181.145C1300.23 134.582 1304.62 85.7847 1305 35.4382C1306.26 -134.651 1263.26 -274.843 1234.35 -384.101C1212.36 -467.118 1216.29 -528.157 1206.81 -579.317C1188.17 -681.868 1118.47 -773.053 1001.52 -828.643C925.751 -864.665 839.554 -881.541 751.455 -880.71C703.973 -880.263 655.878 -874.594 608.433 -864.395C541.082 -849.7 475.73 -825.047 416.006 -791.602C392.002 -778.223 377.475 -760.171 374.038 -740.183C370.093 -717.242 380.84 -691.718 408.866 -667.038C543.588 -550.387 807.251 -391.413 857.102 -171.462C867.778 -123.941 867.118 -78.5807 860.01 -37.2416C855.011 -8.16784 846.644 18.8967 837.031 43.2517C823.085 77.8523 807.45 110.655 801.669 144.271C799.326 157.899 798.699 171.512 800.282 185.556Z" fill="#1463FF"/>
<path d="M1211.27 427.727C1171.55 479.352 1119.78 504.785 1077.16 505.186C1059.42 505.354 1043.57 501.194 1030.76 492.698C913.669 414.659 848.59 268.326 837.29 162.984C835.863 148.031 836.646 133.51 839.107 119.2C844.848 85.8109 859.3 53.2465 872.309 19.1083C881.117 -3.87854 888.312 -29.1179 892.96 -56.1474C900.264 -98.6223 900.872 -145.343 889.897 -194.448C840.93 -411.232 585.796 -571.648 450.827 -688.523C420.539 -714.996 408.428 -742.548 412.646 -767.079C415.927 -786.159 429.153 -803.291 451.285 -815.745C510.151 -849.182 575.385 -873.154 642.126 -887.617C688.427 -897.804 735.91 -903.241 782.534 -903.681C870.061 -904.506 955.725 -887.852 1031.2 -851.827C1146.76 -796.451 1215.73 -705.939 1233.66 -604.288C1242.65 -553.577 1241.22 -492.108 1263.99 -408.645C1293.79 -299.622 1336.09 -160.331 1334.94 7.49005C1334.56 57.8366 1330.17 106.634 1322.2 152.97C1303.34 262.678 1264.58 358.513 1211.27 427.727ZM840.189 162.73C851.282 267.62 916.4 413.726 1032.75 491.092C1045.07 499.139 1060.35 503.304 1077.51 503.142C1118.41 502.757 1169.5 478.011 1208.82 427.07C1261.76 358.313 1300.48 262.705 1319.3 153.224C1327.27 106.888 1331.66 58.0907 1332 7.97125C1333.11 -159.622 1291.06 -298.69 1261.26 -407.712C1238.24 -491.4 1239.67 -552.868 1230.64 -603.353C1212.6 -704.322 1144.12 -794.385 1029.06 -849.312C954.112 -885.115 868.734 -901.772 781.779 -900.952C735.155 -900.512 688.244 -895.081 642.268 -885.124C576.1 -870.667 511.19 -846.924 452.649 -813.717C431.415 -801.498 418.631 -785.277 415.467 -766.879C411.405 -743.256 423.023 -716.154 453.063 -689.905C587.5 -573.252 843.413 -412.39 892.835 -194.93C903.772 -145.597 903.124 -98.6492 895.781 -55.9472C891.095 -28.6906 883.574 -3.2214 875.053 19.7627C862.043 53.9009 847.591 86.4653 841.889 119.628C839.507 133.483 838.723 148.004 840.189 162.73Z" fill="#1463FF"/>
<path d="M1197.12 390.444C1158.85 448.631 1106.59 480.191 1066.79 480.793C1059.06 480.866 1051.82 479.8 1045.39 477.366C942.683 440.237 900.196 313.647 892.171 214.17C890.135 189.471 892.637 164.957 896.894 140.199C901.151 115.44 907.164 90.4391 912.474 64.5373C913.815 58.4018 914.908 52.0418 916.041 45.4548C925.883 -11.7841 928.746 -78.2547 912.327 -148.852C865.749 -347.971 666.679 -513.904 539.03 -630.168C497.576 -668.101 477.561 -702.835 482.209 -729.864C483.693 -738.496 487.595 -746.242 494.488 -753.111C528.742 -787.903 593.35 -803.252 651.899 -814.916C689.762 -822.529 728.183 -826.746 766.226 -827.105C846.03 -827.858 924.127 -812.04 991.949 -777.983C1091.82 -727.675 1150.49 -647.044 1164.2 -557.372C1171.91 -507.556 1193.48 -441.995 1221.75 -355.636C1255.52 -251.413 1291.15 -123.17 1291.51 24.2269C1291.5 74.1165 1287.47 122.457 1279.69 167.657C1264.41 254.881 1235.76 331.799 1197.12 390.444ZM895.148 213.462C902.927 312.714 945.778 438.848 1046.92 475.084C1053.11 477.294 1059.78 478.365 1067.22 478.295C1104.97 477.939 1156.51 447.292 1194.42 389.562C1232.73 331.148 1261.3 254.683 1276.3 167.462C1284.07 122.262 1288.35 74.1461 1288.07 24.2593C1287.93 -122.686 1252.29 -250.929 1218.48 -354.925C1190.21 -441.284 1168.68 -507.072 1160.97 -556.888C1147.18 -646.106 1089.25 -726.063 989.92 -776.15C922.631 -809.985 844.82 -825.805 765.588 -825.058C727.831 -824.702 689.736 -820.715 652.159 -813.104C593.571 -801.213 529.821 -785.872 496.62 -752.224C490.378 -745.815 486.554 -738.523 485.148 -730.346C480.695 -704.452 500.177 -669.939 541.669 -632.233C669.033 -515.967 868.635 -349.812 915.383 -150.015C931.762 -79.1902 928.861 -12.4924 918.979 44.9736C917.847 51.5606 916.753 57.9205 915.413 64.056C910.102 89.9578 904.09 114.959 899.833 139.717C895.537 164.702 893.36 188.987 895.148 213.462Z" fill="#1463FF"/>
<path d="M1202.03 365.226C1164.87 425.217 1114.22 459.029 1075.89 459.391C1071.03 459.437 1066.25 459.028 1061.87 457.936C966.542 434.343 928.539 316.554 921.267 219.338C917.69 170.39 928.779 120.849 936.735 67.9368C946.253 5.93876 949.104 -67.108 930.464 -144.714C884.104 -336.805 702.899 -502 581.1 -617.411C537.411 -658.952 514.484 -695.019 519.21 -722.503C520.225 -728.408 522.632 -734.1 526.352 -739.124C550.568 -772.008 611.458 -787.322 666.705 -798.047C701.264 -804.723 736.461 -808.456 771.071 -808.782C848.015 -809.508 923.33 -794.117 988.122 -760.712C1082.33 -712.392 1129.63 -633.695 1149.75 -549.753C1162.26 -497.94 1188.53 -431.518 1217.66 -345.166C1251.61 -243.666 1284.92 -120.164 1285.54 19.0674C1285.81 68.9543 1281.86 116.84 1274.13 161.814C1260.46 241.312 1235.35 310.94 1202.03 365.226ZM933.155 -145.42C951.756 -67.5866 948.827 5.9145 939.309 67.9125C931.314 121.052 920.264 170.365 923.881 219.087C930.945 315.851 969.637 432.953 1063.07 455.883C1067.17 456.979 1071.67 457.39 1076.24 457.347C1112.57 457.004 1162.74 424.33 1199.57 364.569C1232.86 310.51 1257.93 241.109 1271.52 162.065C1279.21 117.319 1283.16 69.4329 1282.89 19.546C1282.23 -119.458 1249.17 -242.736 1214.93 -344.233C1185.8 -430.585 1159.2 -496.778 1147.06 -549.047C1126.9 -632.762 1079.77 -710.78 986.38 -758.882C921.834 -792.062 847.091 -807.458 770.719 -806.738C736.109 -806.412 701.524 -802.911 666.925 -796.008C611.393 -785.28 551.608 -769.75 528.484 -738.237C525.089 -733.443 522.761 -728.205 521.784 -722.527C517.293 -696.406 539.648 -660.334 583.09 -619.018C705.136 -503.381 886.666 -338.417 933.155 -145.42Z" fill="#1463FF"/>
<path d="M1207.64 330.931C1172.71 392.941 1124.85 428.769 1088.24 429.114C1086.52 429.13 1084.81 429.146 1083.13 428.935C998.92 420.432 964.047 315.993 957.333 222.173C953.925 173.903 962.023 123.484 966.82 69.0138C972.412 6.59924 971.999 -65.7366 952.514 -141.748C906.23 -324.315 746.594 -485.404 633.388 -599.309C587.867 -645.141 562.522 -682.092 567.326 -710.031C567.873 -713.211 568.667 -716.166 570.033 -719.127C584.094 -749.42 634.271 -765.54 685.604 -775.095C715.964 -780.597 746.466 -783.606 776.786 -783.892C850.011 -784.582 921.4 -769.608 982.63 -737.077C1069.26 -691.179 1105.99 -615.784 1135.03 -535.554C1154.42 -482.219 1183.68 -414.917 1213 -329.702C1246.51 -232.279 1276.5 -116.002 1277.84 12.3369C1278.41 62.2211 1274.53 109.653 1266.92 153.945C1255.2 222.086 1234.51 282.602 1207.64 330.931ZM635.911 -600.694C748.83 -486.786 909 -325.475 955.452 -142.229C974.612 -65.9879 975.272 6.57228 969.68 68.9868C964.883 123.457 956.785 173.876 960.272 221.692C966.738 315.287 1002.63 418.809 1084.09 426.659C1085.77 426.87 1087.2 426.856 1088.92 426.84C1122.91 426.746 1170.61 391.827 1205.18 330.273C1232.02 282.172 1252.63 222.11 1264.34 153.969C1271.92 109.904 1275.79 62.4725 1275.23 12.5883C1273.84 -115.524 1244.15 -231.804 1210.6 -328.999C1181.27 -414.214 1151.68 -481.286 1132.58 -534.624C1103.79 -614.629 1066.99 -689.57 981.135 -735.021C920.437 -767.331 849.621 -782.31 776.968 -781.625C746.934 -781.342 716.431 -778.334 686.357 -772.834C635.025 -763.28 585.953 -746.943 573.062 -718.475C571.735 -715.741 570.98 -713.013 570.473 -710.06C565.617 -683.482 590.351 -646.298 635.911 -600.694Z" fill="#1463FF"/>
<path d="M1209.83 313.222C1176.25 375.674 1130.24 412.391 1094.73 412.952C1094.16 412.958 1093.87 412.96 1093.3 412.966C1015.11 410.982 980.781 313.341 974.327 221.333C970.84 173.517 977.586 122.657 980.992 67.9733C984.868 5.57487 982.622 -66.0634 962.98 -141.166C916.695 -318.744 766.888 -477.205 658.597 -589.796C616.936 -633.169 601.524 -669.761 606.484 -698.607C612.304 -732.451 646.126 -754.767 695.339 -763.621C723.333 -768.647 751.794 -771.41 780.112 -771.677C851.335 -772.348 921.007 -757.358 980.066 -725.487C1062.6 -680.684 1097.15 -607.536 1129.66 -527.566C1151.54 -473.801 1181.95 -406.51 1211.18 -322.428C1244.26 -227.496 1272.3 -114.829 1274.01 8.06458C1274.57 57.9488 1270.74 105.153 1263.2 148.991C1252.63 212.133 1234.19 267.865 1209.83 313.222ZM965.711 -142.099C985.313 -66.769 987.52 5.09634 983.645 67.4947C980.2 122.405 973.739 173.263 977.018 220.627C983.511 312.408 1018.57 409.135 1093.73 410.467C1094.02 410.464 1094.59 410.459 1094.87 410.456C1127.73 410.373 1173.87 374.562 1207.09 312.568C1231.09 267.668 1249.48 212.162 1260.3 149.245C1267.84 105.407 1271.67 58.2028 1271.07 8.54584C1269.32 -114.12 1241.21 -226.333 1208.41 -321.268C1179.18 -405.351 1148.77 -472.641 1126.89 -526.406C1094.38 -606.376 1060.08 -679.3 978.285 -723.429C919.511 -755.303 850.372 -770.072 779.721 -769.406C751.69 -769.141 723.514 -766.381 695.846 -761.585C647.205 -752.736 615.255 -731.345 609.384 -698.862C604.58 -670.924 619.498 -634.781 660.911 -591.632C769.163 -478.814 919.218 -320.128 965.711 -142.099Z" fill="#1463FF"/>
</g>
<defs>
<clipPath id="clip0">
<rect width="1147" height="702" fill="white"/>
</clipPath>
</defs>
</svg>
